<!-- Generated by IcoMoon.io -->
<svg version="1.1" xmlns="http://www.w3.org/2000/svg" width="32" height="32" viewBox="0 0 32 32">
<title>download</title>
<path d="M16 0c-8.836 0-16 7.164-16 16s7.163 16 16 16 16-7.164 16-16c-0-8.836-7.164-16-16-16zM11.837 11.238c0.221-0.221 0.511-0.332 0.801-0.332s0.58 0.111 0.801 0.332l1.418 1.418v-5.992c0-0.626 0.507-1.133 1.133-1.133s1.133 0.507 1.133 1.133v6.069l1.495-1.495c0.221-0.221 0.511-0.332 0.801-0.332s0.58 0.111 0.801 0.332c0.272 0.272 0.376 0.648 0.313 1.001 0 0-0 0.001-0 0.001-0.005 0.025-0.013 0.050-0.019 0.075-0.010 0.039-0.020 0.078-0.034 0.116-0.009 0.025-0.020 0.050-0.032 0.075-0.018 0.040-0.038 0.077-0.061 0.115-0.012 0.020-0.023 0.040-0.036 0.059-0.039 0.056-0.081 0.11-0.131 0.16l-3.382 3.382c-0.222 0.221-0.511 0.331-0.801 0.331-0.003 0-0.006 0-0.008 0s-0.006 0-0.008 0c-0.29 0-0.579-0.11-0.801-0.331l-3.382-3.382c-0.050-0.050-0.092-0.104-0.13-0.16-0.014-0.020-0.025-0.040-0.037-0.060-0.022-0.037-0.042-0.075-0.060-0.114-0.012-0.025-0.023-0.051-0.032-0.077-0.014-0.037-0.024-0.075-0.034-0.113-0.007-0.026-0.015-0.052-0.020-0.078-0.064-0.352 0.039-0.729 0.312-1.001zM24.701 22.327h-0c0 1.529-1.499 2.727-3.414 2.727h-10.574c-1.914 0-3.414-1.198-3.414-2.727v-7.361c0-1.293 1.073-2.345 2.56-2.641 0.064 0.638 0.344 1.229 0.804 1.689l0.438 0.438h-0.388c-0.775 0-1.201 0.386-1.201 0.514v7.361c0 0.128 0.426 0.514 1.201 0.514h10.574c0.775 0 1.201-0.386 1.201-0.514v-7.361c0-0.128-0.426-0.514-1.201-0.514h-0.333l0.439-0.438c0.457-0.456 0.735-1.044 0.802-1.678 1.459 0.311 2.506 1.354 2.506 2.63v7.36z"></path>
</svg>
