<!-- Generated by IcoMoon.io -->
<svg version="1.1" xmlns="http://www.w3.org/2000/svg" width="32" height="32" viewBox="0 0 32 32">
<title>twitter</title>
<path fill="#76a9ea" d="M31.491 5.787c-0.711 0.315-1.449 0.564-2.206 0.744 0.834-0.793 1.462-1.785 1.816-2.892v0c0.101-0.316-0.242-0.589-0.528-0.42v0c-1.054 0.625-2.188 1.094-3.373 1.394-0.069 0.017-0.14 0.026-0.211 0.026-0.216 0-0.426-0.080-0.591-0.226-1.26-1.111-2.882-1.723-4.565-1.723-0.728 0-1.464 0.114-2.186 0.337-2.237 0.694-3.963 2.539-4.505 4.816-0.203 0.854-0.258 1.709-0.164 2.54 0.011 0.096-0.034 0.162-0.062 0.194-0.049 0.055-0.118 0.086-0.19 0.086-0.008 0-0.016-0-0.024-0.001-4.897-0.455-9.312-2.814-12.433-6.643v0c-0.159-0.195-0.464-0.171-0.591 0.046v0c-0.611 1.049-0.934 2.248-0.934 3.468 0 1.87 0.751 3.633 2.057 4.918-0.549-0.13-1.080-0.335-1.574-0.609v0c-0.239-0.133-0.532 0.038-0.536 0.311v0c-0.034 2.778 1.593 5.251 4.029 6.364-0.049 0.001-0.098 0.002-0.147 0.002-0.386 0-0.777-0.037-1.162-0.111v0c-0.269-0.051-0.495 0.204-0.411 0.464v0c0.791 2.469 2.917 4.29 5.462 4.703-2.112 1.418-4.571 2.165-7.13 2.165l-0.798-0c-0.246 0-0.454 0.16-0.516 0.398-0.062 0.235 0.052 0.482 0.262 0.604 2.884 1.678 6.174 2.566 9.515 2.566 2.925 0 5.66-0.58 8.131-1.725 2.265-1.049 4.267-2.549 5.949-4.458 1.567-1.778 2.793-3.831 3.643-6.101 0.81-2.164 1.238-4.473 1.238-6.678v-0.105c-0-0.354 0.16-0.687 0.439-0.914 1.060-0.861 1.983-1.874 2.743-3.011v0c0.201-0.3-0.116-0.677-0.446-0.53v0z"></path>
</svg>
