<svg aria-hidden="true" style="position: absolute; width: 0; height: 0; overflow: hidden;" version="1.1" xmlns="http://www.w3.org/2000/svg" xmlns:xlink="http://www.w3.org/1999/xlink">
<defs>
<symbol id="icon-download" viewBox="0 0 32 32">
<title>download</title>
<path d="M16 0c-8.836 0-16 7.164-16 16s7.163 16 16 16 16-7.164 16-16c-0-8.836-7.164-16-16-16zM11.837 11.238c0.221-0.221 0.511-0.332 0.801-0.332s0.58 0.111 0.801 0.332l1.418 1.418v-5.992c0-0.626 0.507-1.133 1.133-1.133s1.133 0.507 1.133 1.133v6.069l1.495-1.495c0.221-0.221 0.511-0.332 0.801-0.332s0.58 0.111 0.801 0.332c0.272 0.272 0.376 0.648 0.313 1.001 0 0-0 0.001-0 0.001-0.005 0.025-0.013 0.050-0.019 0.075-0.010 0.039-0.020 0.078-0.034 0.116-0.009 0.025-0.020 0.050-0.032 0.075-0.018 0.040-0.038 0.077-0.061 0.115-0.012 0.020-0.023 0.040-0.036 0.059-0.039 0.056-0.081 0.11-0.131 0.16l-3.382 3.382c-0.222 0.221-0.511 0.331-0.801 0.331-0.003 0-0.006 0-0.008 0s-0.006 0-0.008 0c-0.29 0-0.579-0.11-0.801-0.331l-3.382-3.382c-0.050-0.050-0.092-0.104-0.13-0.16-0.014-0.020-0.025-0.040-0.037-0.060-0.022-0.037-0.042-0.075-0.060-0.114-0.012-0.025-0.023-0.051-0.032-0.077-0.014-0.037-0.024-0.075-0.034-0.113-0.007-0.026-0.015-0.052-0.020-0.078-0.064-0.352 0.039-0.729 0.312-1.001zM24.701 22.327h-0c0 1.529-1.499 2.727-3.414 2.727h-10.574c-1.914 0-3.414-1.198-3.414-2.727v-7.361c0-1.293 1.073-2.345 2.56-2.641 0.064 0.638 0.344 1.229 0.804 1.689l0.438 0.438h-0.388c-0.775 0-1.201 0.386-1.201 0.514v7.361c0 0.128 0.426 0.514 1.201 0.514h10.574c0.775 0 1.201-0.386 1.201-0.514v-7.361c0-0.128-0.426-0.514-1.201-0.514h-0.333l0.439-0.438c0.457-0.456 0.735-1.044 0.802-1.678 1.459 0.311 2.506 1.354 2.506 2.63v7.36z"></path>
</symbol>
<symbol id="icon-facebook" viewBox="0 0 32 32">
<title>facebook</title>
<path d="M27.688 0h-23.376c-2.381 0-4.312 1.931-4.312 4.312v23.376c0 2.382 1.931 4.312 4.312 4.312h11.529l0.020-11.435h-2.971c-0.386 0-0.699-0.312-0.701-0.698l-0.014-3.686c-0.002-0.388 0.313-0.704 0.701-0.704h2.965v-3.562c0-4.133 2.524-6.384 6.211-6.384h3.026c0.387 0 0.701 0.314 0.701 0.701v3.108c0 0.387-0.314 0.701-0.701 0.701l-1.857 0.001c-2.005 0-2.393 0.953-2.393 2.351v3.083h4.406c0.42 0 0.746 0.367 0.696 0.784l-0.437 3.686c-0.042 0.353-0.341 0.619-0.696 0.619h-3.949l-0.020 11.435h6.86c2.381 0 4.312-1.931 4.312-4.312v-23.376c-0-2.382-1.931-4.312-4.312-4.312z"></path>
</symbol>
<symbol id="icon-google-plus" viewBox="0 0 32 32">
<title>google-plus</title>
<path fill="#f34a38" style="fill: var(--color2, #f34a38)" d="M11.227 18.112h5c-0.878 2.481-3.254 4.26-6.037 4.239-3.376-0.025-6.168-2.726-6.299-6.1-0.14-3.617 2.761-6.603 6.347-6.603 1.64 0 3.136 0.625 4.264 1.648 0.267 0.243 0.674 0.244 0.937-0.003l1.836-1.728c0.287-0.27 0.288-0.727 0.002-0.998-1.789-1.695-4.189-2.751-6.835-2.803-5.644-0.11-10.402 4.517-10.441 10.163-0.040 5.688 4.559 10.311 10.237 10.311 5.461 0 9.922-4.276 10.221-9.662 0.008-0.068 0.013-2.35 0.013-2.35h-9.244c-0.379 0-0.686 0.307-0.686 0.686v2.514c0 0.379 0.307 0.686 0.686 0.686z"></path>
<path fill="#f34a38" style="fill: var(--color2, #f34a38)" d="M28.943 14.454v-2.456c0-0.332-0.269-0.601-0.601-0.601h-2.067c-0.332 0-0.601 0.269-0.601 0.601v2.456h-2.456c-0.332 0-0.601 0.269-0.601 0.601v2.067c0 0.332 0.269 0.601 0.601 0.601h2.456v2.456c0 0.332 0.269 0.601 0.601 0.601h2.067c0.332 0 0.601-0.269 0.601-0.601v-2.456h2.456c0.332 0 0.601-0.269 0.601-0.601v-2.067c0-0.332-0.269-0.601-0.601-0.601h-2.456z"></path>
</symbol>
<symbol id="icon-instagram" viewBox="0 0 32 32">
<title>instagram</title>
<path d="M22.467 0h-12.934c-5.256 0-9.533 4.276-9.533 9.533v12.934c0 5.256 4.276 9.533 9.533 9.533h12.934c5.256 0 9.533-4.276 9.533-9.533v-12.934c-0-5.256-4.277-9.533-9.533-9.533zM28.781 22.467c0 3.487-2.827 6.314-6.314 6.314h-12.934c-3.487 0-6.314-2.827-6.314-6.314v-12.934c0-3.487 2.827-6.314 6.314-6.314h12.934c3.487 0 6.314 2.827 6.314 6.314v12.934z"></path>
<path d="M16 7.724c-4.564 0-8.276 3.713-8.276 8.276s3.713 8.276 8.276 8.276 8.276-3.713 8.276-8.276-3.713-8.276-8.276-8.276zM16 21.057c-2.793 0-5.057-2.264-5.057-5.057s2.264-5.057 5.057-5.057c2.793 0 5.057 2.264 5.057 5.057s-2.264 5.057-5.057 5.057z"></path>
<path d="M26.276 7.786c0 1.095-0.888 1.983-1.983 1.983s-1.983-0.888-1.983-1.983c0-1.095 0.888-1.983 1.983-1.983s1.983 0.888 1.983 1.983z"></path>
</symbol>
<symbol id="icon-linkedin" viewBox="0 0 32 32">
<title>linkedin</title>
<path fill="#0077b7" style="fill: var(--color3, #0077b7)" d="M29.105 0h-26.211c-1.599 0-2.895 1.296-2.895 2.895v26.211c0 1.599 1.296 2.895 2.895 2.895h26.211c1.599 0 2.895-1.296 2.895-2.895v-26.211c0-1.599-1.296-2.895-2.895-2.895zM9.902 27.631c0 0.465-0.377 0.842-0.842 0.842h-3.586c-0.465 0-0.842-0.377-0.842-0.842v-15.032c0-0.465 0.377-0.842 0.842-0.842h3.586c0.465 0 0.842 0.377 0.842 0.842v15.032zM7.267 10.34c-1.881 0-3.407-1.525-3.407-3.407s1.525-3.407 3.407-3.407 3.407 1.525 3.407 3.407-1.525 3.407-3.407 3.407zM28.642 27.699c0 0.428-0.347 0.775-0.775 0.775h-3.848c-0.428 0-0.775-0.347-0.775-0.775v-7.051c0-1.052 0.309-4.609-2.749-4.609-2.371 0-2.852 2.435-2.949 3.528v8.132c0 0.428-0.347 0.775-0.775 0.775h-3.722c-0.428 0-0.775-0.347-0.775-0.775v-15.167c0-0.428 0.347-0.775 0.775-0.775h3.722c0.428 0 0.775 0.347 0.775 0.775v1.311c0.879-1.32 2.186-2.338 4.969-2.338 6.161 0 6.126 5.756 6.126 8.919v7.275z"></path>
</symbol>
<symbol id="icon-twitter" viewBox="0 0 32 32">
<title>twitter</title>
<path d="M31.491 5.787c-0.711 0.315-1.449 0.564-2.206 0.744 0.834-0.793 1.462-1.785 1.816-2.892v0c0.101-0.316-0.242-0.589-0.528-0.42v0c-1.054 0.625-2.188 1.094-3.373 1.394-0.069 0.017-0.14 0.026-0.211 0.026-0.216 0-0.426-0.080-0.591-0.226-1.26-1.111-2.882-1.723-4.565-1.723-0.728 0-1.464 0.114-2.186 0.337-2.237 0.694-3.963 2.539-4.505 4.816-0.203 0.854-0.258 1.709-0.164 2.54 0.011 0.096-0.034 0.162-0.062 0.194-0.049 0.055-0.118 0.086-0.19 0.086-0.008 0-0.016-0-0.024-0.001-4.897-0.455-9.312-2.814-12.433-6.643v0c-0.159-0.195-0.464-0.171-0.591 0.046v0c-0.611 1.049-0.934 2.248-0.934 3.468 0 1.87 0.751 3.633 2.057 4.918-0.549-0.13-1.080-0.335-1.574-0.609v0c-0.239-0.133-0.532 0.038-0.536 0.311v0c-0.034 2.778 1.593 5.251 4.029 6.364-0.049 0.001-0.098 0.002-0.147 0.002-0.386 0-0.777-0.037-1.162-0.111v0c-0.269-0.051-0.495 0.204-0.411 0.464v0c0.791 2.469 2.917 4.29 5.462 4.703-2.112 1.418-4.571 2.165-7.13 2.165l-0.798-0c-0.246 0-0.454 0.16-0.516 0.398-0.062 0.235 0.052 0.482 0.262 0.604 2.884 1.678 6.174 2.566 9.515 2.566 2.925 0 5.66-0.58 8.131-1.725 2.265-1.049 4.267-2.549 5.949-4.458 1.567-1.778 2.793-3.831 3.643-6.101 0.81-2.164 1.238-4.473 1.238-6.678v-0.105c-0-0.354 0.16-0.687 0.439-0.914 1.060-0.861 1.983-1.874 2.743-3.011v0c0.201-0.3-0.116-0.677-0.446-0.53v0z"></path>
</symbol>
<symbol id="icon-youtube" viewBox="0 0 32 32">
<title>youtube</title>
<path fill="#f61c0d" style="fill: var(--color5, #f61c0d)" d="M25.354 4.678h-18.708c-3.67 0-6.646 2.976-6.646 6.646v9.352c0 3.67 2.975 6.646 6.646 6.646h18.708c3.67 0 6.646-2.976 6.646-6.646v-9.352c0-3.67-2.976-6.646-6.646-6.646zM20.859 16.455l-8.75 4.173c-0.233 0.111-0.502-0.059-0.502-0.317v-8.608c0-0.262 0.276-0.432 0.51-0.313l8.75 4.434c0.26 0.132 0.256 0.505-0.008 0.63z"></path>
</symbol>
</defs>
</svg>
